# xmcd
#
# Track frame offsets:
#	150
#	9075
#	32963
#	44738
#	58133
#	83083
#	106145
#	122283
#	143973
#	165690
#	169580
#	190445
#	212950
#	230433
#	233815
#	257160
#	271235
#	288485
#	309008
#
# Disc length: 4178 seconds
#
# Revision: 1
# Processed by: cddbd v1.5.2PL0 Copyright (c) Steve Scherf et al.
# Submitted via: EZCDAudioConverter 2.1.7.1
#
DISCID=06105013
DTITLE=V/A - Until The End Of The World
DYEAR=1900
DGENRE=
TTITLE0=Graeme Revell and David Darling - Opening Titles
TTITLE1=Talking Heads - Sax And Violins
TTITLE2=Julee Cruise - Summer Kisses, Winter Tears
TTITLE3=Neneh Cherry - Move With Me (Dub)
TTITLE4=Crime and The City Solution - The Adversary
TTITLE5=Lou Reed - What's Good
TTITLE6=Can - Last Night Sleep
TTITLE7=R.E.M. - Fretless
TTITLE8=Elvis Costello - Days
TTITLE9=Graeme Revell and David Darling - Claire's Theme
TTITLE10=Nick Cave and The Bad Seeds - (I'll Love You) Till The End Of The World
TTITLE11=Patti Smith and Fred Smith - It Takes Time
TTITLE12=Depeche Mode - Death's Door
TTITLE13=Graeme Revell and David Darling - Love Theme
TTITLE14=Jane Siberry With k.d. Lang - Calling All Angels
TTITLE15=T-Bone Burnett - Humans From Earth
TTITLE16=Daniel Lanois - Sleeping In The Devil's Bed
TTITLE17=U2 - Until The End Of The World
TTITLE18=Graeme Revell and David Darling - Finale
EXTD=
EXTT0=
EXTT1=
EXTT2=
EXTT3=
EXTT4=
EXTT5=
EXTT6=
EXTT7=
EXTT8=
EXTT9=
EXTT10=
EXTT11=
EXTT12=
EXTT13=
EXTT14=
EXTT15=
EXTT16=
EXTT17=
EXTT18=
PLAYORDER=
